<svg xmlns="http://www.w3.org/2000/svg" viewBox="0 0 312 312"><rect fill="white" width="312" height="312"/><path fill="black" d="M8,8h8v8h-8zM16,8h8v8h-8zM24,8h8v8h-8zM32,8h8v8h-8zM40,8h8v8h-8zM48,8h8v8h-8zM56,8h8v8h-8zM72,8h8v8h-8zM96,8h8v8h-8zM104,8h8v8h-8zM112,8h8v8h-8zM120,8h8v8h-8zM144,8h8v8h-8zM152,8h8v8h-8zM176,8h8v8h-8zM208,8h8v8h-8zM216,8h8v8h-8zM248,8h8v8h-8zM256,8h8v8h-8zM264,8h8v8h-8zM272,8h8v8h-8zM280,8h8v8h-8zM288,8h8v8h-8zM296,8h8v8h-8zM8,16h8v8h-8zM56,16h8v8h-8zM80,16h8v8h-8zM88,16h8v8h-8zM112,16h8v8h-8zM120,16h8v8h-8zM136,16h8v8h-8zM160,16h8v8h-8zM176,16h8v8h-8zM208,16h8v8h-8zM216,16h8v8h-8zM232,16h8v8h-8zM248,16h8v8h-8zM296,16h8v8h-8zM8,24h8v8h-8zM24,24h8v8h-8zM32,24h8v8h-8zM40,24h8v8h-8zM56,24h8v8h-8zM88,24h8v8h-8zM104,24h8v8h-8zM112,24h8v8h-8zM120,24h8v8h-8zM128,24h8v8h-8zM152,24h8v8h-8zM168,24h8v8h-8zM176,24h8v8h-8zM184,24h8v8h-8zM208,24h8v8h-8zM216,24h8v8h-8zM248,24h8v8h-8zM264,24h8v8h-8zM272,24h8v8h-8zM280,24h8v8h-8zM296,24h8v8h-8zM8,32h8v8h-8zM24,32h8v8h-8zM32,32h8v8h-8zM40,32h8v8h-8zM56,32h8v8h-8zM104,32h8v8h-8zM112,32h8v8h-8zM128,32h8v8h-8zM136,32h8v8h-8zM144,32h8v8h-8zM160,32h8v8h-8zM168,32h8v8h-8zM176,32h8v8h-8zM200,32h8v8h-8zM208,32h8v8h-8zM224,32h8v8h-8zM232,32h8v8h-8zM248,32h8v8h-8zM264,32h8v8h-8zM272,32h8v8h-8zM280,32h8v8h-8zM296,32h8v8h-8zM8,40h8v8h-8zM24,40h8v8h-8zM32,40h8v8h-8zM40,40h8v8h-8zM56,40h8v8h-8zM80,40h8v8h-8zM96,40h8v8h-8zM136,40h8v8h-8zM144,40h8v8h-8zM152,40h8v8h-8zM160,40h8v8h-8zM168,40h8v8h-8zM176,40h8v8h-8zM216,40h8v8h-8zM248,40h8v8h-8zM264,40h8v8h-8zM272,40h8v8h-8zM280,40h8v8h-8zM296,40h8v8h-8zM8,48h8v8h-8zM56,48h8v8h-8zM88,48h8v8h-8zM104,48h8v8h-8zM120,48h8v8h-8zM144,48h8v8h-8zM176,48h8v8h-8zM184,48h8v8h-8zM192,48h8v8h-8zM200,48h8v8h-8zM208,48h8v8h-8zM216,48h8v8h-8zM232,48h8v8h-8zM248,48h8v8h-8zM296,48h8v8h-8zM8,56h8v8h-8zM16,56h8v8h-8zM24,56h8v8h-8zM32,56h8v8h-8zM40,56h8v8h-8zM48,56h8v8h-8zM56,56h8v8h-8zM72,56h8v8h-8zM88,56h8v8h-8zM104,56h8v8h-8zM120,56h8v8h-8zM136,56h8v8h-8zM152,56h8v8h-8zM168,56h8v8h-8zM184,56h8v8h-8zM200,56h8v8h-8zM216,56h8v8h-8zM232,56h8v8h-8zM248,56h8v8h-8zM256,56h8v8h-8zM264,56h8v8h-8zM272,56h8v8h-8zM280,56h8v8h-8zM288,56h8v8h-8zM296,56h8v8h-8zM72,64h8v8h-8zM88,64h8v8h-8zM96,64h8v8h-8zM112,64h8v8h-8zM120,64h8v8h-8zM136,64h8v8h-8zM160,64h8v8h-8zM168,64h8v8h-8zM184,64h8v8h-8zM208,64h8v8h-8zM224,64h8v8h-8zM232,64h8v8h-8zM8,72h8v8h-8zM16,72h8v8h-8zM32,72h8v8h-8zM40,72h8v8h-8zM56,72h8v8h-8zM80,72h8v8h-8zM88,72h8v8h-8zM96,72h8v8h-8zM120,72h8v8h-8zM136,72h8v8h-8zM144,72h8v8h-8zM168,72h8v8h-8zM216,72h8v8h-8zM224,72h8v8h-8zM248,72h8v8h-8zM296,72h8v8h-8zM16,80h8v8h-8zM24,80h8v8h-8zM32,80h8v8h-8zM48,80h8v8h-8zM72,80h8v8h-8zM104,80h8v8h-8zM120,80h8v8h-8zM128,80h8v8h-8zM136,80h8v8h-8zM152,80h8v8h-8zM160,80h8v8h-8zM176,80h8v8h-8zM184,80h8v8h-8zM192,80h8v8h-8zM216,80h8v8h-8zM224,80h8v8h-8zM264,80h8v8h-8zM288,80h8v8h-8zM24,88h8v8h-8zM32,88h8v8h-8zM48,88h8v8h-8zM56,88h8v8h-8zM64,88h8v8h-8zM80,88h8v8h-8zM88,88h8v8h-8zM96,88h8v8h-8zM128,88h8v8h-8zM136,88h8v8h-8zM144,88h8v8h-8zM176,88h8v8h-8zM184,88h8v8h-8zM192,88h8v8h-8zM224,88h8v8h-8zM232,88h8v8h-8zM256,88h8v8h-8zM264,88h8v8h-8zM272,88h8v8h-8zM280,88h8v8h-8zM288,88h8v8h-8zM296,88h8v8h-8zM16,96h8v8h-8zM64,96h8v8h-8zM80,96h8v8h-8zM88,96h8v8h-8zM96,96h8v8h-8zM104,96h8v8h-8zM120,96h8v8h-8zM136,96h8v8h-8zM144,96h8v8h-8zM168,96h8v8h-8zM184,96h8v8h-8zM200,96h8v8h-8zM216,96h8v8h-8zM224,96h8v8h-8zM256,96h8v8h-8zM264,96h8v8h-8zM280,96h8v8h-8zM8,104h8v8h-8zM16,104h8v8h-8zM24,104h8v8h-8zM40,104h8v8h-8zM48,104h8v8h-8zM56,104h8v8h-8zM64,104h8v8h-8zM72,104h8v8h-8zM80,104h8v8h-8zM96,104h8v8h-8zM104,104h8v8h-8zM160,104h8v8h-8zM168,104h8v8h-8zM192,104h8v8h-8zM232,104h8v8h-8zM248,104h8v8h-8zM256,104h8v8h-8zM272,104h8v8h-8zM288,104h8v8h-8zM296,104h8v8h-8zM8,112h8v8h-8zM16,112h8v8h-8zM24,112h8v8h-8zM48,112h8v8h-8zM64,112h8v8h-8zM72,112h8v8h-8zM80,112h8v8h-8zM88,112h8v8h-8zM112,112h8v8h-8zM128,112h8v8h-8zM136,112h8v8h-8zM192,112h8v8h-8zM216,112h8v8h-8zM224,112h8v8h-8zM232,112h8v8h-8zM240,112h8v8h-8zM264,112h8v8h-8zM272,112h8v8h-8zM280,112h8v8h-8zM288,112h8v8h-8zM8,120h8v8h-8zM16,120h8v8h-8zM24,120h8v8h-8zM32,120h8v8h-8zM40,120h8v8h-8zM48,120h8v8h-8zM56,120h8v8h-8zM64,120h8v8h-8zM72,120h8v8h-8zM88,120h8v8h-8zM96,120h8v8h-8zM104,120h8v8h-8zM128,120h8v8h-8zM136,120h8v8h-8zM152,120h8v8h-8zM160,120h8v8h-8zM176,120h8v8h-8zM184,120h8v8h-8zM216,120h8v8h-8zM224,120h8v8h-8zM240,120h8v8h-8zM248,120h8v8h-8zM264,120h8v8h-8zM288,120h8v8h-8zM296,120h8v8h-8zM8,128h8v8h-8zM24,128h8v8h-8zM40,128h8v8h-8zM48,128h8v8h-8zM72,128h8v8h-8zM80,128h8v8h-8zM96,128h8v8h-8zM120,128h8v8h-8zM152,128h8v8h-8zM200,128h8v8h-8zM216,128h8v8h-8zM224,128h8v8h-8zM232,128h8v8h-8zM248,128h8v8h-8zM256,128h8v8h-8zM280,128h8v8h-8zM296,128h8v8h-8zM16,136h8v8h-8zM24,136h8v8h-8zM32,136h8v8h-8zM40,136h8v8h-8zM48,136h8v8h-8zM56,136h8v8h-8zM112,136h8v8h-8zM152,136h8v8h-8zM168,136h8v8h-8zM184,136h8v8h-8zM192,136h8v8h-8zM200,136h8v8h-8zM208,136h8v8h-8zM248,136h8v8h-8zM272,136h8v8h-8zM280,136h8v8h-8zM288,136h8v8h-8zM296,136h8v8h-8zM24,144h8v8h-8zM32,144h8v8h-8zM48,144h8v8h-8zM64,144h8v8h-8zM72,144h8v8h-8zM88,144h8v8h-8zM96,144h8v8h-8zM104,144h8v8h-8zM112,144h8v8h-8zM128,144h8v8h-8zM152,144h8v8h-8zM160,144h8v8h-8zM168,144h8v8h-8zM216,144h8v8h-8zM224,144h8v8h-8zM256,144h8v8h-8zM272,144h8v8h-8zM8,152h8v8h-8zM16,152h8v8h-8zM32,152h8v8h-8zM40,152h8v8h-8zM56,152h8v8h-8zM72,152h8v8h-8zM80,152h8v8h-8zM96,152h8v8h-8zM112,152h8v8h-8zM120,152h8v8h-8zM128,152h8v8h-8zM136,152h8v8h-8zM144,152h8v8h-8zM160,152h8v8h-8zM184,152h8v8h-8zM192,152h8v8h-8zM208,152h8v8h-8zM224,152h8v8h-8zM232,152h8v8h-8zM240,152h8v8h-8zM248,152h8v8h-8zM296,152h8v8h-8zM8,160h8v8h-8zM16,160h8v8h-8zM24,160h8v8h-8zM40,160h8v8h-8zM48,160h8v8h-8zM64,160h8v8h-8zM72,160h8v8h-8zM104,160h8v8h-8zM112,160h8v8h-8zM128,160h8v8h-8zM136,160h8v8h-8zM184,160h8v8h-8zM208,160h8v8h-8zM216,160h8v8h-8zM224,160h8v8h-8zM232,160h8v8h-8zM256,160h8v8h-8zM264,160h8v8h-8zM272,160h8v8h-8zM296,160h8v8h-8zM8,168h8v8h-8zM24,168h8v8h-8zM48,168h8v8h-8zM56,168h8v8h-8zM72,168h8v8h-8zM80,168h8v8h-8zM88,168h8v8h-8zM104,168h8v8h-8zM120,168h8v8h-8zM136,168h8v8h-8zM144,168h8v8h-8zM192,168h8v8h-8zM200,168h8v8h-8zM232,168h8v8h-8zM240,168h8v8h-8zM248,168h8v8h-8zM256,168h8v8h-8zM264,168h8v8h-8zM272,168h8v8h-8zM288,168h8v8h-8zM296,168h8v8h-8zM24,176h8v8h-8zM64,176h8v8h-8zM72,176h8v8h-8zM120,176h8v8h-8zM128,176h8v8h-8zM152,176h8v8h-8zM160,176h8v8h-8zM192,176h8v8h-8zM208,176h8v8h-8zM216,176h8v8h-8zM224,176h8v8h-8zM256,176h8v8h-8zM264,176h8v8h-8zM272,176h8v8h-8zM280,176h8v8h-8zM288,176h8v8h-8zM32,184h8v8h-8zM56,184h8v8h-8zM72,184h8v8h-8zM80,184h8v8h-8zM88,184h8v8h-8zM104,184h8v8h-8zM120,184h8v8h-8zM128,184h8v8h-8zM136,184h8v8h-8zM144,184h8v8h-8zM152,184h8v8h-8zM192,184h8v8h-8zM224,184h8v8h-8zM232,184h8v8h-8zM240,184h8v8h-8zM248,184h8v8h-8zM280,184h8v8h-8zM296,184h8v8h-8zM8,192h8v8h-8zM16,192h8v8h-8zM120,192h8v8h-8zM128,192h8v8h-8zM144,192h8v8h-8zM160,192h8v8h-8zM192,192h8v8h-8zM216,192h8v8h-8zM248,192h8v8h-8zM256,192h8v8h-8zM264,192h8v8h-8zM272,192h8v8h-8zM280,192h8v8h-8zM288,192h8v8h-8zM296,192h8v8h-8zM40,200h8v8h-8zM56,200h8v8h-8zM64,200h8v8h-8zM72,200h8v8h-8zM80,200h8v8h-8zM88,200h8v8h-8zM136,200h8v8h-8zM160,200h8v8h-8zM168,200h8v8h-8zM184,200h8v8h-8zM200,200h8v8h-8zM224,200h8v8h-8zM232,200h8v8h-8zM248,200h8v8h-8zM256,200h8v8h-8zM272,200h8v8h-8zM296,200h8v8h-8zM8,208h8v8h-8zM16,208h8v8h-8zM64,208h8v8h-8zM88,208h8v8h-8zM104,208h8v8h-8zM120,208h8v8h-8zM128,208h8v8h-8zM136,208h8v8h-8zM152,208h8v8h-8zM176,208h8v8h-8zM192,208h8v8h-8zM200,208h8v8h-8zM208,208h8v8h-8zM224,208h8v8h-8zM232,208h8v8h-8zM240,208h8v8h-8zM256,208h8v8h-8zM264,208h8v8h-8zM280,208h8v8h-8zM288,208h8v8h-8zM8,216h8v8h-8zM16,216h8v8h-8zM32,216h8v8h-8zM48,216h8v8h-8zM56,216h8v8h-8zM64,216h8v8h-8zM72,216h8v8h-8zM80,216h8v8h-8zM88,216h8v8h-8zM112,216h8v8h-8zM120,216h8v8h-8zM128,216h8v8h-8zM144,216h8v8h-8zM160,216h8v8h-8zM168,216h8v8h-8zM224,216h8v8h-8zM232,216h8v8h-8zM248,216h8v8h-8zM256,216h8v8h-8zM264,216h8v8h-8zM280,216h8v8h-8zM288,216h8v8h-8zM296,216h8v8h-8zM8,224h8v8h-8zM24,224h8v8h-8zM32,224h8v8h-8zM40,224h8v8h-8zM48,224h8v8h-8zM104,224h8v8h-8zM120,224h8v8h-8zM160,224h8v8h-8zM192,224h8v8h-8zM200,224h8v8h-8zM232,224h8v8h-8zM240,224h8v8h-8zM264,224h8v8h-8zM272,224h8v8h-8zM280,224h8v8h-8zM296,224h8v8h-8zM8,232h8v8h-8zM32,232h8v8h-8zM48,232h8v8h-8zM56,232h8v8h-8zM88,232h8v8h-8zM96,232h8v8h-8zM104,232h8v8h-8zM112,232h8v8h-8zM160,232h8v8h-8zM168,232h8v8h-8zM184,232h8v8h-8zM192,232h8v8h-8zM208,232h8v8h-8zM232,232h8v8h-8zM240,232h8v8h-8zM248,232h8v8h-8zM256,232h8v8h-8zM264,232h8v8h-8zM280,232h8v8h-8zM288,232h8v8h-8zM72,240h8v8h-8zM80,240h8v8h-8zM88,240h8v8h-8zM96,240h8v8h-8zM120,240h8v8h-8zM128,240h8v8h-8zM136,240h8v8h-8zM144,240h8v8h-8zM152,240h8v8h-8zM160,240h8v8h-8zM208,240h8v8h-8zM232,240h8v8h-8zM264,240h8v8h-8zM272,240h8v8h-8zM280,240h8v8h-8zM288,240h8v8h-8zM8,248h8v8h-8zM16,248h8v8h-8zM24,248h8v8h-8zM32,248h8v8h-8zM40,248h8v8h-8zM48,248h8v8h-8zM56,248h8v8h-8zM80,248h8v8h-8zM104,248h8v8h-8zM120,248h8v8h-8zM128,248h8v8h-8zM144,248h8v8h-8zM160,248h8v8h-8zM176,248h8v8h-8zM192,248h8v8h-8zM200,248h8v8h-8zM216,248h8v8h-8zM232,248h8v8h-8zM248,248h8v8h-8zM264,248h8v8h-8zM272,248h8v8h-8zM280,248h8v8h-8zM296,248h8v8h-8zM8,256h8v8h-8zM56,256h8v8h-8zM80,256h8v8h-8zM96,256h8v8h-8zM112,256h8v8h-8zM128,256h8v8h-8zM160,256h8v8h-8zM208,256h8v8h-8zM224,256h8v8h-8zM232,256h8v8h-8zM264,256h8v8h-8zM272,256h8v8h-8zM8,264h8v8h-8zM24,264h8v8h-8zM32,264h8v8h-8zM40,264h8v8h-8zM56,264h8v8h-8zM72,264h8v8h-8zM80,264h8v8h-8zM96,264h8v8h-8zM112,264h8v8h-8zM128,264h8v8h-8zM144,264h8v8h-8zM160,264h8v8h-8zM192,264h8v8h-8zM200,264h8v8h-8zM216,264h8v8h-8zM224,264h8v8h-8zM232,264h8v8h-8zM240,264h8v8h-8zM248,264h8v8h-8zM256,264h8v8h-8zM264,264h8v8h-8zM272,264h8v8h-8zM288,264h8v8h-8zM8,272h8v8h-8zM24,272h8v8h-8zM32,272h8v8h-8zM40,272h8v8h-8zM56,272h8v8h-8zM72,272h8v8h-8zM88,272h8v8h-8zM104,272h8v8h-8zM112,272h8v8h-8zM120,272h8v8h-8zM128,272h8v8h-8zM144,272h8v8h-8zM152,272h8v8h-8zM160,272h8v8h-8zM192,272h8v8h-8zM208,272h8v8h-8zM216,272h8v8h-8zM224,272h8v8h-8zM240,272h8v8h-8zM248,272h8v8h-8zM288,272h8v8h-8zM296,272h8v8h-8zM8,280h8v8h-8zM24,280h8v8h-8zM32,280h8v8h-8zM40,280h8v8h-8zM56,280h8v8h-8zM88,280h8v8h-8zM96,280h8v8h-8zM112,280h8v8h-8zM128,280h8v8h-8zM192,280h8v8h-8zM200,280h8v8h-8zM216,280h8v8h-8zM224,280h8v8h-8zM240,280h8v8h-8zM256,280h8v8h-8zM264,280h8v8h-8zM272,280h8v8h-8zM296,280h8v8h-8zM8,288h8v8h-8zM56,288h8v8h-8zM72,288h8v8h-8zM88,288h8v8h-8zM96,288h8v8h-8zM104,288h8v8h-8zM112,288h8v8h-8zM144,288h8v8h-8zM152,288h8v8h-8zM168,288h8v8h-8zM184,288h8v8h-8zM192,288h8v8h-8zM216,288h8v8h-8zM240,288h8v8h-8zM256,288h8v8h-8zM272,288h8v8h-8zM280,288h8v8h-8zM288,288h8v8h-8zM296,288h8v8h-8zM8,296h8v8h-8zM16,296h8v8h-8zM24,296h8v8h-8zM32,296h8v8h-8zM40,296h8v8h-8zM48,296h8v8h-8zM56,296h8v8h-8zM72,296h8v8h-8zM80,296h8v8h-8zM96,296h8v8h-8zM104,296h8v8h-8zM112,296h8v8h-8zM128,296h8v8h-8zM160,296h8v8h-8zM168,296h8v8h-8zM200,296h8v8h-8zM232,296h8v8h-8zM240,296h8v8h-8zM248,296h8v8h-8zM264,296h8v8h-8zM296,296h8v8h-8z"/></svg>
